<svg width="16" height="16" viewBox="0 0 16 16" fill="none" xmlns="http://www.w3.org/2000/svg">
<path d="M5.00001 5.11333V4.46667C5.00001 2.96667 6.20667 1.49333 7.70667 1.35333C8.12346 1.31239 8.5442 1.35915 8.94181 1.49063C9.33943 1.6221 9.70512 1.83536 10.0153 2.1167C10.3256 2.39803 10.5734 2.7412 10.743 3.12411C10.9126 3.50703 11.0002 3.92121 11 4.34V5.26M2.54001 11.04L2.69334 12.2867C2.84001 13.5933 3.32001 14.6667 6.00001 14.6667H10C12.68 14.6667 13.16 13.5933 13.3 12.2867L13.8 8.28667C13.98 6.66 13.5133 5.33333 10.6667 5.33333H5.33334C2.48667 5.33333 2.02001 6.66 2.20001 8.28667" stroke="white" stroke-width="1.5" stroke-miterlimit="10" stroke-linecap="round" stroke-linejoin="round"/>
<path d="M10.33 8H10.336M5.66333 8H5.66866" stroke="white" stroke-width="2" stroke-linecap="round" stroke-linejoin="round"/>
</svg>
